<svg xmlns="http://www.w3.org/2000/svg" viewBox="0 0 241.0 136.0" font-family="Linux Libertine, Libertine, Times New Roman, serif"><rect width="241.0" height="136.0" fill="#fff"/><circle cx="98.00" cy="10.00" r="2.0" fill="#000" stroke="#000" stroke-width="0.6"/>
<rect x="33.00" y="22.50" width="34.00" height="11.00" rx="2" fill="none" stroke="#000" stroke-width="0.6"/>
<text x="50.00" y="30.40" font-size="6.0px" text-anchor="middle" fill="#000" >0</text>
<line x1="98.00" y1="12.00" x2="50.00" y2="22.50" stroke="#000" stroke-width="0.5" stroke-linecap="butt"/>
<rect x="33.00" y="42.50" width="34.00" height="11.00" rx="2" fill="none" stroke="#000" stroke-width="0.6"/>
<text x="50.00" y="50.40" font-size="6.0px" text-anchor="middle" fill="#000" >0 = N</text>
<line x1="50.00" y1="33.50" x2="50.00" y2="42.50" stroke="#000" stroke-width="0.5" stroke-linecap="butt"/>
<rect x="33.00" y="62.50" width="34.00" height="11.00" rx="2" fill="none" stroke="#000" stroke-width="0.6"/>
<text x="50.00" y="70.40" font-size="6.0px" text-anchor="middle" fill="#000" >0 = B</text>
<line x1="50.00" y1="53.50" x2="50.00" y2="62.50" stroke="#000" stroke-width="0.5" stroke-linecap="butt"/>
<line x1="50.00" y1="73.50" x2="50.00" y2="82.50" stroke="#1f5fa8" stroke-width="0.5" stroke-linecap="butt"/>
<rect x="31.00" y="82.50" width="38.00" height="11.00" rx="2" fill="none" stroke="#1f5fa8" stroke-width="0.6" stroke-dasharray="1.6,1.2"/>
<text x="50.00" y="90.40" font-size="5.8px" text-anchor="middle" fill="#1f5fa8" font-style="italic" >b<tspan font-size="70%" dy="1.6" font-style="normal">1</tspan><tspan dy="-1.6"> </tspan>, b<tspan font-size="70%" dy="1.6" font-style="normal">2</tspan><tspan dy="-1.6"> </tspan>, b<tspan font-size="70%" dy="1.6" font-style="normal">3</tspan><tspan dy="-1.6"> </tspan></text>
<text x="50.00" y="99.50" font-size="5.6px" text-anchor="middle" fill="#555" >chain 0</text>
<text x="50.00" y="106.50" font-size="5.6px" text-anchor="middle" fill="#555" >labels [0, 3)</text>
<rect x="81.00" y="22.50" width="34.00" height="11.00" rx="2" fill="none" stroke="#000" stroke-width="0.6"/>
<text x="98.00" y="30.40" font-size="6.0px" text-anchor="middle" fill="#000" >1 = A</text>
<line x1="98.00" y1="12.00" x2="98.00" y2="22.50" stroke="#000" stroke-width="0.5" stroke-linecap="butt"/>
<rect x="81.00" y="42.50" width="34.00" height="11.00" rx="2" fill="none" stroke="#000" stroke-width="0.6"/>
<text x="98.00" y="50.40" font-size="6.0px" text-anchor="middle" fill="#000" >1 = A</text>
<line x1="98.00" y1="33.50" x2="98.00" y2="42.50" stroke="#000" stroke-width="0.5" stroke-linecap="butt"/>
<rect x="81.00" y="62.50" width="34.00" height="11.00" rx="2" fill="none" stroke="#000" stroke-width="0.6"/>
<text x="98.00" y="70.40" font-size="6.0px" text-anchor="middle" fill="#000" >1 = A</text>
<line x1="98.00" y1="53.50" x2="98.00" y2="62.50" stroke="#000" stroke-width="0.5" stroke-linecap="butt"/>
<rect x="81.00" y="82.50" width="34.00" height="11.00" rx="2" fill="none" stroke="#000" stroke-width="0.6"/>
<text x="98.00" y="90.40" font-size="6.0px" text-anchor="middle" fill="#000" >0 = A</text>
<line x1="98.00" y1="73.50" x2="98.00" y2="82.50" stroke="#000" stroke-width="0.5" stroke-linecap="butt"/>
<line x1="98.00" y1="93.50" x2="98.00" y2="102.50" stroke="#1f5fa8" stroke-width="0.5" stroke-linecap="butt"/>
<rect x="79.00" y="102.50" width="38.00" height="11.00" rx="2" fill="none" stroke="#1f5fa8" stroke-width="0.6" stroke-dasharray="1.6,1.2"/>
<text x="98.00" y="110.40" font-size="5.8px" text-anchor="middle" fill="#1f5fa8" font-style="italic" >a<tspan font-size="70%" dy="1.6" font-style="normal">1</tspan><tspan dy="-1.6"> </tspan>, …, a<tspan font-size="70%" dy="1.6" font-style="normal">5</tspan><tspan dy="-1.6"> </tspan></text>
<text x="98.00" y="119.50" font-size="5.6px" text-anchor="middle" fill="#555" >chain 1</text>
<text x="98.00" y="126.50" font-size="5.6px" text-anchor="middle" fill="#555" >labels [3, 8)</text>
<rect x="129.00" y="22.50" width="34.00" height="11.00" rx="2" fill="none" stroke="#000" stroke-width="0.6"/>
<text x="146.00" y="30.40" font-size="6.0px" text-anchor="middle" fill="#000" >2</text>
<line x1="98.00" y1="12.00" x2="146.00" y2="22.50" stroke="#000" stroke-width="0.5" stroke-linecap="butt"/>
<rect x="129.00" y="42.50" width="34.00" height="11.00" rx="2" fill="none" stroke="#000" stroke-width="0.6"/>
<text x="146.00" y="50.40" font-size="6.0px" text-anchor="middle" fill="#000" >0 = N</text>
<line x1="146.00" y1="33.50" x2="146.00" y2="42.50" stroke="#000" stroke-width="0.5" stroke-linecap="butt"/>
<line x1="146.00" y1="53.50" x2="146.00" y2="62.50" stroke="#1f5fa8" stroke-width="0.5" stroke-linecap="butt"/>
<rect x="127.00" y="62.50" width="38.00" height="11.00" rx="2" fill="none" stroke="#1f5fa8" stroke-width="0.6" stroke-dasharray="1.6,1.2"/>
<text x="146.00" y="70.40" font-size="5.8px" text-anchor="middle" fill="#1f5fa8" font-style="italic" >u<tspan font-size="70%" dy="1.6" font-style="normal">1</tspan><tspan dy="-1.6"> </tspan>, …, w<tspan font-size="70%" dy="1.6" font-style="normal">3</tspan><tspan dy="-1.6"> </tspan></text>
<text x="146.00" y="79.50" font-size="5.6px" text-anchor="middle" fill="#555" >chain 2</text>
<text x="146.00" y="86.50" font-size="5.6px" text-anchor="middle" fill="#555" >labels [8, 14)</text>
<rect x="177.00" y="62.50" width="34.00" height="11.00" rx="2" fill="none" stroke="#000" stroke-width="0.6"/>
<text x="194.00" y="70.40" font-size="6.0px" text-anchor="middle" fill="#000" >0 = B</text>
<line x1="146.00" y1="53.50" x2="194.00" y2="62.50" stroke="#000" stroke-width="0.5" stroke-linecap="butt"/>
<line x1="194.00" y1="73.50" x2="194.00" y2="82.50" stroke="#1f5fa8" stroke-width="0.5" stroke-linecap="butt"/>
<rect x="175.00" y="82.50" width="38.00" height="11.00" rx="2" fill="none" stroke="#1f5fa8" stroke-width="0.6" stroke-dasharray="1.6,1.2"/>
<text x="194.00" y="90.40" font-size="5.8px" text-anchor="middle" fill="#1f5fa8" font-style="italic" >x</text>
<text x="194.00" y="99.50" font-size="5.6px" text-anchor="middle" fill="#555" >chain 3</text>
<text x="194.00" y="106.50" font-size="5.6px" text-anchor="middle" fill="#555" >labels [14, 15)</text>
<text x="26.00" y="30.40" font-size="6.0px" text-anchor="end" fill="#777" >s = 2</text>
<text x="26.00" y="50.40" font-size="6.0px" text-anchor="end" fill="#777" >s = 3</text>
<text x="26.00" y="70.40" font-size="6.0px" text-anchor="end" fill="#777" >s = 4</text>
<text x="26.00" y="90.40" font-size="6.0px" text-anchor="end" fill="#777" >s = 5</text></svg>