<svg xmlns="http://www.w3.org/2000/svg" viewBox="0 0 506.0 186.5" font-family="Linux Libertine, Libertine, Times New Roman, serif"><rect width="506.0" height="186.5" fill="#fff"/><text x="2.00" y="9.00" font-size="7.8px" text-anchor="start" fill="#000" >(a) Baseline</text>
<text x="22.00" y="48.80" font-size="7.0px" text-anchor="end" fill="#000" >s = 2</text>
<rect x="26.00" y="40.20" width="12.60" height="12.00" rx="0" fill="#d0ddee" stroke="#000" stroke-width="0.5"/>
<text x="32.30" y="49.00" font-size="7.0px" text-anchor="middle" fill="#000" font-style="italic" >b<tspan font-size="70%" dy="1.6" font-style="normal">1</tspan><tspan dy="-1.6"> </tspan></text>
<rect x="38.60" y="40.20" width="12.60" height="12.00" rx="0" fill="#d0ddee" stroke="#000" stroke-width="0.5"/>
<text x="44.90" y="49.00" font-size="7.0px" text-anchor="middle" fill="#000" font-style="italic" >b<tspan font-size="70%" dy="1.6" font-style="normal">2</tspan><tspan dy="-1.6"> </tspan></text>
<rect x="51.20" y="40.20" width="12.60" height="12.00" rx="0" fill="#d0ddee" stroke="#000" stroke-width="0.5"/>
<text x="57.50" y="49.00" font-size="7.0px" text-anchor="middle" fill="#000" font-style="italic" >b<tspan font-size="70%" dy="1.6" font-style="normal">3</tspan><tspan dy="-1.6"> </tspan></text>
<rect x="63.80" y="40.20" width="12.60" height="12.00" rx="0" fill="#f7f0e1" stroke="#000" stroke-width="0.5"/>
<text x="70.10" y="49.00" font-size="7.0px" text-anchor="middle" fill="#000" font-style="italic" >a<tspan font-size="70%" dy="1.6" font-style="normal">1</tspan><tspan dy="-1.6"> </tspan></text>
<rect x="76.40" y="40.20" width="12.60" height="12.00" rx="0" fill="#f7f0e1" stroke="#000" stroke-width="0.5"/>
<text x="82.70" y="49.00" font-size="7.0px" text-anchor="middle" fill="#000" font-style="italic" >a<tspan font-size="70%" dy="1.6" font-style="normal">2</tspan><tspan dy="-1.6"> </tspan></text>
<rect x="89.00" y="40.20" width="12.60" height="12.00" rx="0" fill="#f7f0e1" stroke="#000" stroke-width="0.5"/>
<text x="95.30" y="49.00" font-size="7.0px" text-anchor="middle" fill="#000" font-style="italic" >a<tspan font-size="70%" dy="1.6" font-style="normal">3</tspan><tspan dy="-1.6"> </tspan></text>
<rect x="101.60" y="40.20" width="12.60" height="12.00" rx="0" fill="#f7f0e1" stroke="#000" stroke-width="0.5"/>
<text x="107.90" y="49.00" font-size="7.0px" text-anchor="middle" fill="#000" font-style="italic" >a<tspan font-size="70%" dy="1.6" font-style="normal">4</tspan><tspan dy="-1.6"> </tspan></text>
<rect x="114.20" y="40.20" width="12.60" height="12.00" rx="0" fill="#f7f0e1" stroke="#000" stroke-width="0.5"/>
<text x="120.50" y="49.00" font-size="7.0px" text-anchor="middle" fill="#000" font-style="italic" >a<tspan font-size="70%" dy="1.6" font-style="normal">5</tspan><tspan dy="-1.6"> </tspan></text>
<rect x="126.80" y="40.20" width="12.60" height="12.00" rx="0" fill="#b6cfad" stroke="#000" stroke-width="0.5"/>
<text x="133.10" y="49.00" font-size="7.0px" text-anchor="middle" fill="#000" font-style="italic" >u<tspan font-size="70%" dy="1.6" font-style="normal">1</tspan><tspan dy="-1.6"> </tspan></text>
<rect x="139.40" y="40.20" width="12.60" height="12.00" rx="0" fill="#b6cfad" stroke="#000" stroke-width="0.5"/>
<text x="145.70" y="49.00" font-size="7.0px" text-anchor="middle" fill="#000" font-style="italic" >u<tspan font-size="70%" dy="1.6" font-style="normal">2</tspan><tspan dy="-1.6"> </tspan></text>
<rect x="152.00" y="40.20" width="12.60" height="12.00" rx="0" fill="#b6cfad" stroke="#000" stroke-width="0.5"/>
<text x="158.30" y="49.00" font-size="7.0px" text-anchor="middle" fill="#000" font-style="italic" >u<tspan font-size="70%" dy="1.6" font-style="normal">3</tspan><tspan dy="-1.6"> </tspan></text>
<rect x="164.60" y="40.20" width="12.60" height="12.00" rx="0" fill="#b6cfad" stroke="#000" stroke-width="0.5"/>
<text x="170.90" y="49.00" font-size="7.0px" text-anchor="middle" fill="#000" font-style="italic" >w<tspan font-size="70%" dy="1.6" font-style="normal">1</tspan><tspan dy="-1.6"> </tspan></text>
<rect x="177.20" y="40.20" width="12.60" height="12.00" rx="0" fill="#b6cfad" stroke="#000" stroke-width="0.5"/>
<text x="183.50" y="49.00" font-size="7.0px" text-anchor="middle" fill="#000" font-style="italic" >w<tspan font-size="70%" dy="1.6" font-style="normal">2</tspan><tspan dy="-1.6"> </tspan></text>
<rect x="189.80" y="40.20" width="12.60" height="12.00" rx="0" fill="#b6cfad" stroke="#000" stroke-width="0.5"/>
<text x="196.10" y="49.00" font-size="7.0px" text-anchor="middle" fill="#000" font-style="italic" >w<tspan font-size="70%" dy="1.6" font-style="normal">3</tspan><tspan dy="-1.6"> </tspan></text>
<rect x="202.40" y="40.20" width="12.60" height="12.00" rx="0" fill="#b7a9cf" stroke="#000" stroke-width="0.5"/>
<text x="208.70" y="49.00" font-size="7.0px" text-anchor="middle" fill="#000" font-style="italic" >x</text>
<rect x="26.90" y="16.00" width="187.20" height="10.50" rx="1.5" fill="#fff" stroke="#000" stroke-width="0.55"/>
<text x="120.50" y="23.60" font-size="6.6px" text-anchor="middle" fill="#000" >top 3</text>
<rect x="127.70" y="28.10" width="86.40" height="10.50" rx="1.5" fill="#fff" stroke="#000" stroke-width="0.55"/>
<text x="170.90" y="35.70" font-size="6.6px" text-anchor="middle" fill="#000" >top 4</text>
<rect x="64.70" y="28.10" width="61.20" height="10.50" rx="1.5" fill="#fff" stroke="#000" stroke-width="0.55"/>
<text x="95.30" y="35.70" font-size="6.6px" text-anchor="middle" fill="#000" >A, top 4</text>
<text x="245.00" y="48.80" font-size="7.0px" text-anchor="end" fill="#000" >s = 3</text>
<rect x="249.00" y="40.20" width="12.60" height="12.00" rx="0" fill="#d0ddee" stroke="#000" stroke-width="0.5"/>
<text x="255.30" y="49.00" font-size="7.0px" text-anchor="middle" fill="#000" font-style="italic" >b<tspan font-size="70%" dy="1.6" font-style="normal">1</tspan><tspan dy="-1.6"> </tspan></text>
<rect x="261.60" y="40.20" width="12.60" height="12.00" rx="0" fill="#d0ddee" stroke="#000" stroke-width="0.5"/>
<text x="267.90" y="49.00" font-size="7.0px" text-anchor="middle" fill="#000" font-style="italic" >b<tspan font-size="70%" dy="1.6" font-style="normal">2</tspan><tspan dy="-1.6"> </tspan></text>
<rect x="274.20" y="40.20" width="12.60" height="12.00" rx="0" fill="#d0ddee" stroke="#000" stroke-width="0.5"/>
<text x="280.50" y="49.00" font-size="7.0px" text-anchor="middle" fill="#000" font-style="italic" >b<tspan font-size="70%" dy="1.6" font-style="normal">3</tspan><tspan dy="-1.6"> </tspan></text>
<rect x="286.80" y="40.20" width="12.60" height="12.00" rx="0" fill="#b6cfad" stroke="#000" stroke-width="0.5"/>
<text x="293.10" y="49.00" font-size="7.0px" text-anchor="middle" fill="#000" font-style="italic" >u<tspan font-size="70%" dy="1.6" font-style="normal">1</tspan><tspan dy="-1.6"> </tspan></text>
<rect x="299.40" y="40.20" width="12.60" height="12.00" rx="0" fill="#b6cfad" stroke="#000" stroke-width="0.5"/>
<text x="305.70" y="49.00" font-size="7.0px" text-anchor="middle" fill="#000" font-style="italic" >u<tspan font-size="70%" dy="1.6" font-style="normal">2</tspan><tspan dy="-1.6"> </tspan></text>
<rect x="312.00" y="40.20" width="12.60" height="12.00" rx="0" fill="#b6cfad" stroke="#000" stroke-width="0.5"/>
<text x="318.30" y="49.00" font-size="7.0px" text-anchor="middle" fill="#000" font-style="italic" >u<tspan font-size="70%" dy="1.6" font-style="normal">3</tspan><tspan dy="-1.6"> </tspan></text>
<rect x="324.60" y="40.20" width="12.60" height="12.00" rx="0" fill="#b6cfad" stroke="#000" stroke-width="0.5"/>
<text x="330.90" y="49.00" font-size="7.0px" text-anchor="middle" fill="#000" font-style="italic" >w<tspan font-size="70%" dy="1.6" font-style="normal">1</tspan><tspan dy="-1.6"> </tspan></text>
<rect x="337.20" y="40.20" width="12.60" height="12.00" rx="0" fill="#b6cfad" stroke="#000" stroke-width="0.5"/>
<text x="343.50" y="49.00" font-size="7.0px" text-anchor="middle" fill="#000" font-style="italic" >w<tspan font-size="70%" dy="1.6" font-style="normal">2</tspan><tspan dy="-1.6"> </tspan></text>
<rect x="349.80" y="40.20" width="12.60" height="12.00" rx="0" fill="#b6cfad" stroke="#000" stroke-width="0.5"/>
<text x="356.10" y="49.00" font-size="7.0px" text-anchor="middle" fill="#000" font-style="italic" >w<tspan font-size="70%" dy="1.6" font-style="normal">3</tspan><tspan dy="-1.6"> </tspan></text>
<rect x="362.40" y="40.20" width="12.60" height="12.00" rx="0" fill="#b7a9cf" stroke="#c2531a" stroke-width="1.2"/>
<text x="368.70" y="49.00" font-size="7.0px" text-anchor="middle" fill="#000" font-style="italic" >x</text>
<rect x="375.00" y="40.20" width="12.60" height="12.00" rx="0" fill="#f7f0e1" stroke="#000" stroke-width="0.5"/>
<text x="381.30" y="49.00" font-size="7.0px" text-anchor="middle" fill="#000" font-style="italic" >a<tspan font-size="70%" dy="1.6" font-style="normal">1</tspan><tspan dy="-1.6"> </tspan></text>
<rect x="387.60" y="40.20" width="12.60" height="12.00" rx="0" fill="#f7f0e1" stroke="#000" stroke-width="0.5"/>
<text x="393.90" y="49.00" font-size="7.0px" text-anchor="middle" fill="#000" font-style="italic" >a<tspan font-size="70%" dy="1.6" font-style="normal">2</tspan><tspan dy="-1.6"> </tspan></text>
<rect x="400.20" y="40.20" width="12.60" height="12.00" rx="0" fill="#f7f0e1" stroke="#000" stroke-width="0.5"/>
<text x="406.50" y="49.00" font-size="7.0px" text-anchor="middle" fill="#000" font-style="italic" >a<tspan font-size="70%" dy="1.6" font-style="normal">3</tspan><tspan dy="-1.6"> </tspan></text>
<rect x="412.80" y="40.20" width="12.60" height="12.00" rx="0" fill="#f7f0e1" stroke="#000" stroke-width="0.5"/>
<text x="419.10" y="49.00" font-size="7.0px" text-anchor="middle" fill="#000" font-style="italic" >a<tspan font-size="70%" dy="1.6" font-style="normal">4</tspan><tspan dy="-1.6"> </tspan></text>
<rect x="425.40" y="40.20" width="12.60" height="12.00" rx="0" fill="#f7f0e1" stroke="#000" stroke-width="0.5"/>
<text x="431.70" y="49.00" font-size="7.0px" text-anchor="middle" fill="#000" font-style="italic" >a<tspan font-size="70%" dy="1.6" font-style="normal">5</tspan><tspan dy="-1.6"> </tspan></text>
<rect x="249.90" y="28.10" width="124.20" height="10.50" rx="1.5" fill="#fff" stroke="#c2531a" stroke-width="1.2"/>
<text x="312.00" y="35.70" font-size="6.6px" text-anchor="middle" fill="#000" >N, top 3</text>
<rect x="375.90" y="28.10" width="61.20" height="10.50" rx="1.5" fill="#fff" stroke="#000" stroke-width="0.55"/>
<text x="406.50" y="35.70" font-size="6.6px" text-anchor="middle" fill="#000" >A, top 6</text>
<text x="22.00" y="80.90" font-size="7.0px" text-anchor="end" fill="#000" >s = 4</text>
<rect x="26.00" y="72.30" width="12.60" height="12.00" rx="0" fill="#d0ddee" stroke="#000" stroke-width="0.5"/>
<text x="32.30" y="81.10" font-size="7.0px" text-anchor="middle" fill="#000" font-style="italic" >b<tspan font-size="70%" dy="1.6" font-style="normal">1</tspan><tspan dy="-1.6"> </tspan></text>
<rect x="38.60" y="72.30" width="12.60" height="12.00" rx="0" fill="#d0ddee" stroke="#000" stroke-width="0.5"/>
<text x="44.90" y="81.10" font-size="7.0px" text-anchor="middle" fill="#000" font-style="italic" >b<tspan font-size="70%" dy="1.6" font-style="normal">2</tspan><tspan dy="-1.6"> </tspan></text>
<rect x="51.20" y="72.30" width="12.60" height="12.00" rx="0" fill="#d0ddee" stroke="#000" stroke-width="0.5"/>
<text x="57.50" y="81.10" font-size="7.0px" text-anchor="middle" fill="#000" font-style="italic" >b<tspan font-size="70%" dy="1.6" font-style="normal">3</tspan><tspan dy="-1.6"> </tspan></text>
<rect x="63.80" y="72.30" width="12.60" height="12.00" rx="0" fill="#b7a9cf" stroke="#000" stroke-width="0.5"/>
<text x="70.10" y="81.10" font-size="7.0px" text-anchor="middle" fill="#000" font-style="italic" >x</text>
<rect x="76.40" y="72.30" width="12.60" height="12.00" rx="0" fill="#f7f0e1" stroke="#000" stroke-width="0.5"/>
<text x="82.70" y="81.10" font-size="7.0px" text-anchor="middle" fill="#000" font-style="italic" >a<tspan font-size="70%" dy="1.6" font-style="normal">1</tspan><tspan dy="-1.6"> </tspan></text>
<rect x="89.00" y="72.30" width="12.60" height="12.00" rx="0" fill="#f7f0e1" stroke="#000" stroke-width="0.5"/>
<text x="95.30" y="81.10" font-size="7.0px" text-anchor="middle" fill="#000" font-style="italic" >a<tspan font-size="70%" dy="1.6" font-style="normal">2</tspan><tspan dy="-1.6"> </tspan></text>
<rect x="101.60" y="72.30" width="12.60" height="12.00" rx="0" fill="#f7f0e1" stroke="#000" stroke-width="0.5"/>
<text x="107.90" y="81.10" font-size="7.0px" text-anchor="middle" fill="#000" font-style="italic" >a<tspan font-size="70%" dy="1.6" font-style="normal">3</tspan><tspan dy="-1.6"> </tspan></text>
<rect x="114.20" y="72.30" width="12.60" height="12.00" rx="0" fill="#f7f0e1" stroke="#000" stroke-width="0.5"/>
<text x="120.50" y="81.10" font-size="7.0px" text-anchor="middle" fill="#000" font-style="italic" >a<tspan font-size="70%" dy="1.6" font-style="normal">4</tspan><tspan dy="-1.6"> </tspan></text>
<rect x="126.80" y="72.30" width="12.60" height="12.00" rx="0" fill="#f7f0e1" stroke="#000" stroke-width="0.5"/>
<text x="133.10" y="81.10" font-size="7.0px" text-anchor="middle" fill="#000" font-style="italic" >a<tspan font-size="70%" dy="1.6" font-style="normal">5</tspan><tspan dy="-1.6"> </tspan></text>
<rect x="26.90" y="60.20" width="48.60" height="10.50" rx="1.5" fill="#fff" stroke="#000" stroke-width="0.55"/>
<text x="51.20" y="67.80" font-size="6.6px" text-anchor="middle" fill="#000" >B, top 1</text>
<rect x="77.30" y="60.20" width="61.20" height="10.50" rx="1.5" fill="#fff" stroke="#000" stroke-width="0.55"/>
<text x="107.90" y="67.80" font-size="6.6px" text-anchor="middle" fill="#000" >A, top 4</text>
<text x="169.40" y="80.90" font-size="7.0px" text-anchor="end" fill="#000" >s = 5</text>
<rect x="173.40" y="72.30" width="12.60" height="12.00" rx="0" fill="#f7f0e1" stroke="#000" stroke-width="0.5"/>
<text x="179.70" y="81.10" font-size="7.0px" text-anchor="middle" fill="#000" font-style="italic" >a<tspan font-size="70%" dy="1.6" font-style="normal">1</tspan><tspan dy="-1.6"> </tspan></text>
<rect x="186.00" y="72.30" width="12.60" height="12.00" rx="0" fill="#f7f0e1" stroke="#000" stroke-width="0.5"/>
<text x="192.30" y="81.10" font-size="7.0px" text-anchor="middle" fill="#000" font-style="italic" >a<tspan font-size="70%" dy="1.6" font-style="normal">2</tspan><tspan dy="-1.6"> </tspan></text>
<rect x="198.60" y="72.30" width="12.60" height="12.00" rx="0" fill="#f7f0e1" stroke="#000" stroke-width="0.5"/>
<text x="204.90" y="81.10" font-size="7.0px" text-anchor="middle" fill="#000" font-style="italic" >a<tspan font-size="70%" dy="1.6" font-style="normal">3</tspan><tspan dy="-1.6"> </tspan></text>
<rect x="211.20" y="72.30" width="12.60" height="12.00" rx="0" fill="#f7f0e1" stroke="#000" stroke-width="0.5"/>
<text x="217.50" y="81.10" font-size="7.0px" text-anchor="middle" fill="#000" font-style="italic" >a<tspan font-size="70%" dy="1.6" font-style="normal">4</tspan><tspan dy="-1.6"> </tspan></text>
<rect x="223.80" y="72.30" width="12.60" height="12.00" rx="0" fill="#f7f0e1" stroke="#000" stroke-width="0.5"/>
<text x="230.10" y="81.10" font-size="7.0px" text-anchor="middle" fill="#000" font-style="italic" >a<tspan font-size="70%" dy="1.6" font-style="normal">5</tspan><tspan dy="-1.6"> </tspan></text>
<rect x="174.30" y="60.20" width="61.20" height="10.50" rx="1.5" fill="#fff" stroke="#000" stroke-width="0.55"/>
<text x="204.90" y="67.80" font-size="6.6px" text-anchor="middle" fill="#000" >A, top 1</text>
<line x1="2.00" y1="90.30" x2="504.00" y2="90.30" stroke="#cccccc" stroke-width="0.5" stroke-linecap="butt"/>
<text x="2.00" y="101.30" font-size="7.8px" text-anchor="start" fill="#000" >(b) ChainIndex</text>
<text x="22.00" y="124.90" font-size="6.4px" text-anchor="end" fill="#555" >label</text>
<rect x="26.00" y="116.30" width="11.80" height="12.00" rx="0" fill="#d0ddee" stroke="#000" stroke-width="0.5"/>
<text x="31.90" y="114.10" font-size="5.6px" text-anchor="middle" fill="#555" >0</text>
<text x="31.90" y="125.10" font-size="7.0px" text-anchor="middle" fill="#000" font-style="italic" >b<tspan font-size="70%" dy="1.6" font-style="normal">1</tspan><tspan dy="-1.6"> </tspan></text>
<rect x="37.80" y="116.30" width="11.80" height="12.00" rx="0" fill="#d0ddee" stroke="#000" stroke-width="0.5"/>
<text x="43.70" y="114.10" font-size="5.6px" text-anchor="middle" fill="#555" >1</text>
<text x="43.70" y="125.10" font-size="7.0px" text-anchor="middle" fill="#000" font-style="italic" >b<tspan font-size="70%" dy="1.6" font-style="normal">2</tspan><tspan dy="-1.6"> </tspan></text>
<rect x="49.60" y="116.30" width="11.80" height="12.00" rx="0" fill="#d0ddee" stroke="#000" stroke-width="0.5"/>
<text x="55.50" y="114.10" font-size="5.6px" text-anchor="middle" fill="#555" >2</text>
<text x="55.50" y="125.10" font-size="7.0px" text-anchor="middle" fill="#000" font-style="italic" >b<tspan font-size="70%" dy="1.6" font-style="normal">3</tspan><tspan dy="-1.6"> </tspan></text>
<rect x="61.40" y="116.30" width="11.80" height="12.00" rx="0" fill="#f7f0e1" stroke="#000" stroke-width="0.5"/>
<text x="67.30" y="114.10" font-size="5.6px" text-anchor="middle" fill="#555" >3</text>
<text x="67.30" y="125.10" font-size="7.0px" text-anchor="middle" fill="#000" font-style="italic" >a<tspan font-size="70%" dy="1.6" font-style="normal">1</tspan><tspan dy="-1.6"> </tspan></text>
<rect x="73.20" y="116.30" width="11.80" height="12.00" rx="0" fill="#f7f0e1" stroke="#000" stroke-width="0.5"/>
<text x="79.10" y="114.10" font-size="5.6px" text-anchor="middle" fill="#555" >4</text>
<text x="79.10" y="125.10" font-size="7.0px" text-anchor="middle" fill="#000" font-style="italic" >a<tspan font-size="70%" dy="1.6" font-style="normal">2</tspan><tspan dy="-1.6"> </tspan></text>
<rect x="85.00" y="116.30" width="11.80" height="12.00" rx="0" fill="#f7f0e1" stroke="#000" stroke-width="0.5"/>
<text x="90.90" y="114.10" font-size="5.6px" text-anchor="middle" fill="#555" >5</text>
<text x="90.90" y="125.10" font-size="7.0px" text-anchor="middle" fill="#000" font-style="italic" >a<tspan font-size="70%" dy="1.6" font-style="normal">3</tspan><tspan dy="-1.6"> </tspan></text>
<rect x="96.80" y="116.30" width="11.80" height="12.00" rx="0" fill="#f7f0e1" stroke="#000" stroke-width="0.5"/>
<text x="102.70" y="114.10" font-size="5.6px" text-anchor="middle" fill="#555" >6</text>
<text x="102.70" y="125.10" font-size="7.0px" text-anchor="middle" fill="#000" font-style="italic" >a<tspan font-size="70%" dy="1.6" font-style="normal">4</tspan><tspan dy="-1.6"> </tspan></text>
<rect x="108.60" y="116.30" width="11.80" height="12.00" rx="0" fill="#f7f0e1" stroke="#000" stroke-width="0.5"/>
<text x="114.50" y="114.10" font-size="5.6px" text-anchor="middle" fill="#555" >7</text>
<text x="114.50" y="125.10" font-size="7.0px" text-anchor="middle" fill="#000" font-style="italic" >a<tspan font-size="70%" dy="1.6" font-style="normal">5</tspan><tspan dy="-1.6"> </tspan></text>
<rect x="120.40" y="116.30" width="11.80" height="12.00" rx="0" fill="#b6cfad" stroke="#000" stroke-width="0.5"/>
<text x="126.30" y="114.10" font-size="5.6px" text-anchor="middle" fill="#555" >8</text>
<text x="126.30" y="125.10" font-size="7.0px" text-anchor="middle" fill="#000" font-style="italic" >u<tspan font-size="70%" dy="1.6" font-style="normal">1</tspan><tspan dy="-1.6"> </tspan></text>
<rect x="132.20" y="116.30" width="11.80" height="12.00" rx="0" fill="#b6cfad" stroke="#000" stroke-width="0.5"/>
<text x="138.10" y="114.10" font-size="5.6px" text-anchor="middle" fill="#555" >9</text>
<text x="138.10" y="125.10" font-size="7.0px" text-anchor="middle" fill="#000" font-style="italic" >u<tspan font-size="70%" dy="1.6" font-style="normal">2</tspan><tspan dy="-1.6"> </tspan></text>
<rect x="144.00" y="116.30" width="11.80" height="12.00" rx="0" fill="#b6cfad" stroke="#000" stroke-width="0.5"/>
<text x="149.90" y="114.10" font-size="5.6px" text-anchor="middle" fill="#555" >10</text>
<text x="149.90" y="125.10" font-size="7.0px" text-anchor="middle" fill="#000" font-style="italic" >u<tspan font-size="70%" dy="1.6" font-style="normal">3</tspan><tspan dy="-1.6"> </tspan></text>
<rect x="155.80" y="116.30" width="11.80" height="12.00" rx="0" fill="#b6cfad" stroke="#000" stroke-width="0.5"/>
<text x="161.70" y="114.10" font-size="5.6px" text-anchor="middle" fill="#555" >11</text>
<text x="161.70" y="125.10" font-size="7.0px" text-anchor="middle" fill="#000" font-style="italic" >w<tspan font-size="70%" dy="1.6" font-style="normal">1</tspan><tspan dy="-1.6"> </tspan></text>
<rect x="167.60" y="116.30" width="11.80" height="12.00" rx="0" fill="#b6cfad" stroke="#000" stroke-width="0.5"/>
<text x="173.50" y="114.10" font-size="5.6px" text-anchor="middle" fill="#555" >12</text>
<text x="173.50" y="125.10" font-size="7.0px" text-anchor="middle" fill="#000" font-style="italic" >w<tspan font-size="70%" dy="1.6" font-style="normal">2</tspan><tspan dy="-1.6"> </tspan></text>
<rect x="179.40" y="116.30" width="11.80" height="12.00" rx="0" fill="#b6cfad" stroke="#000" stroke-width="0.5"/>
<text x="185.30" y="114.10" font-size="5.6px" text-anchor="middle" fill="#555" >13</text>
<text x="185.30" y="125.10" font-size="7.0px" text-anchor="middle" fill="#000" font-style="italic" >w<tspan font-size="70%" dy="1.6" font-style="normal">3</tspan><tspan dy="-1.6"> </tspan></text>
<rect x="191.20" y="116.30" width="11.80" height="12.00" rx="0" fill="#b7a9cf" stroke="#000" stroke-width="0.5"/>
<text x="197.10" y="114.10" font-size="5.6px" text-anchor="middle" fill="#555" >14</text>
<text x="197.10" y="125.10" font-size="7.0px" text-anchor="middle" fill="#000" font-style="italic" >x</text>
<line x1="26.60" y1="129.90" x2="60.80" y2="129.90" stroke="#c2531a" stroke-width="1.2" stroke-linecap="butt"/>
<line x1="121.00" y1="129.90" x2="202.40" y2="129.90" stroke="#c2531a" stroke-width="1.2" stroke-linecap="butt"/>
<rect x="191.20" y="116.30" width="11.80" height="12.00" rx="0" fill="none" stroke="#c2531a" stroke-width="1.2"/>
<text x="237.00" y="124.90" font-size="6.4px" text-anchor="end" fill="#555" >record</text>
<rect x="243.00" y="109.30" width="14.00" height="11.00" rx="0" fill="#d0ddee" stroke="#000" stroke-width="0.5"/>
<text x="250.00" y="117.30" font-size="6.8px" text-anchor="middle" fill="#000" >0</text>
<text x="260.50" y="117.30" font-size="6.4px" text-anchor="start" fill="#000" ><tspan font-style="italic">ω</tspan> = 4, <tspan font-style="italic">σ</tspan> = 2</text>
<rect x="243.00" y="123.30" width="14.00" height="11.00" rx="0" fill="#b6cfad" stroke="#000" stroke-width="0.5"/>
<text x="250.00" y="131.30" font-size="6.8px" text-anchor="middle" fill="#000" >2</text>
<text x="260.50" y="131.30" font-size="6.4px" text-anchor="start" fill="#000" ><tspan font-style="italic">ω</tspan> = 3, <tspan font-style="italic">σ</tspan> = 4, <tspan font-style="italic">κ</tspan><tspan font-size="75%" dy="1.7">2</tspan><tspan dy="-1.7"> = 4</tspan>, <tspan font-style="italic">κ</tspan><tspan font-size="75%" dy="1.7">3</tspan><tspan dy="-1.7"> = 3</tspan></text>
<rect x="347.00" y="109.30" width="14.00" height="11.00" rx="0" fill="#f7f0e1" stroke="#000" stroke-width="0.5"/>
<text x="354.00" y="117.30" font-size="6.8px" text-anchor="middle" fill="#000" >1</text>
<text x="364.50" y="117.30" font-size="6.4px" text-anchor="start" fill="#000" ><tspan font-style="italic">ω</tspan> = 5, <tspan font-style="italic">σ</tspan> = 2</text>
<rect x="347.00" y="123.30" width="14.00" height="11.00" rx="0" fill="#b7a9cf" stroke="#000" stroke-width="0.5"/>
<text x="354.00" y="131.30" font-size="6.8px" text-anchor="middle" fill="#000" >3</text>
<text x="364.50" y="131.30" font-size="6.4px" text-anchor="start" fill="#000" ><tspan font-style="italic">ω</tspan> = 4, <tspan font-style="italic">σ</tspan> = 3, <tspan font-style="italic">κ</tspan><tspan font-size="75%" dy="1.7">2</tspan><tspan dy="-1.7"> = 4</tspan></text>
<text x="22.00" y="169.10" font-size="7.0px" text-anchor="end" fill="#000" >s = 2</text>
<rect x="26.00" y="160.50" width="30.00" height="12.00" rx="0" fill="#d0ddee" stroke="#000" stroke-width="0.5"/>
<text x="41.00" y="169.30" font-size="7.0px" text-anchor="middle" fill="#000" >0</text>
<rect x="56.00" y="160.50" width="30.00" height="12.00" rx="0" fill="#f7f0e1" stroke="#000" stroke-width="0.5"/>
<text x="71.00" y="169.30" font-size="7.0px" text-anchor="middle" fill="#000" >1</text>
<rect x="86.00" y="160.50" width="30.00" height="12.00" rx="0" fill="#b6cfad" stroke="#000" stroke-width="0.5"/>
<text x="101.00" y="169.30" font-size="7.0px" text-anchor="middle" fill="#000" >2</text>
<rect x="116.00" y="160.50" width="30.00" height="12.00" rx="0" fill="#b7a9cf" stroke="#000" stroke-width="0.5"/>
<text x="131.00" y="169.30" font-size="7.0px" text-anchor="middle" fill="#000" >3</text>
<rect x="26.90" y="136.30" width="118.20" height="10.50" rx="1.5" fill="#fff" stroke="#000" stroke-width="0.55"/>
<text x="86.00" y="143.90" font-size="6.6px" text-anchor="middle" fill="#000" >top 3</text>
<rect x="86.90" y="148.40" width="58.20" height="10.50" rx="1.5" fill="#fff" stroke="#000" stroke-width="0.55"/>
<text x="116.00" y="156.00" font-size="6.6px" text-anchor="middle" fill="#000" >top 4</text>
<rect x="56.90" y="148.40" width="28.20" height="10.50" rx="1.5" fill="#fff" stroke="#000" stroke-width="0.55"/>
<text x="71.00" y="156.00" font-size="6.6px" text-anchor="middle" fill="#000" >A, top 4</text>
<line x1="27.50" y1="177.00" x2="144.50" y2="177.00" stroke="#000" stroke-width="0.6" stroke-linecap="butt"/>
<line x1="27.50" y1="177.00" x2="27.50" y2="174.60" stroke="#000" stroke-width="0.6" stroke-linecap="butt"/>
<line x1="144.50" y1="177.00" x2="144.50" y2="174.60" stroke="#000" stroke-width="0.6" stroke-linecap="butt"/>
<text x="86.00" y="184.80" font-size="6.4px" text-anchor="middle" fill="#000" >[0, 15)</text>
<text x="176.00" y="169.10" font-size="7.0px" text-anchor="end" fill="#000" >s = 3</text>
<rect x="180.00" y="160.50" width="30.00" height="12.00" rx="0" fill="#d0ddee" stroke="#000" stroke-width="0.5"/>
<text x="195.00" y="169.30" font-size="7.0px" text-anchor="middle" fill="#000" >0</text>
<rect x="210.00" y="160.50" width="30.00" height="12.00" rx="0" fill="#b6cfad" stroke="#000" stroke-width="0.5"/>
<text x="225.00" y="169.30" font-size="7.0px" text-anchor="middle" fill="#000" >2</text>
<rect x="240.00" y="160.50" width="30.00" height="12.00" rx="0" fill="#b7a9cf" stroke="#c2531a" stroke-width="1.2"/>
<text x="255.00" y="169.30" font-size="7.0px" text-anchor="middle" fill="#000" >3</text>
<rect x="270.00" y="160.50" width="30.00" height="12.00" rx="0" fill="#f7f0e1" stroke="#000" stroke-width="0.5"/>
<text x="285.00" y="169.30" font-size="7.0px" text-anchor="middle" fill="#000" >1</text>
<rect x="180.90" y="148.40" width="88.20" height="10.50" rx="1.5" fill="#fff" stroke="#c2531a" stroke-width="1.2"/>
<text x="225.00" y="156.00" font-size="6.6px" text-anchor="middle" fill="#000" >N, top 3</text>
<rect x="270.90" y="148.40" width="28.20" height="10.50" rx="1.5" fill="#fff" stroke="#000" stroke-width="0.55"/>
<text x="285.00" y="156.00" font-size="6.6px" text-anchor="middle" fill="#000" >A, top 6</text>
<line x1="181.50" y1="177.00" x2="208.50" y2="177.00" stroke="#c2531a" stroke-width="0.9" stroke-linecap="butt"/>
<line x1="181.50" y1="177.00" x2="181.50" y2="174.60" stroke="#c2531a" stroke-width="0.9" stroke-linecap="butt"/>
<line x1="208.50" y1="177.00" x2="208.50" y2="174.60" stroke="#c2531a" stroke-width="0.9" stroke-linecap="butt"/>
<text x="195.00" y="184.80" font-size="6.4px" text-anchor="middle" fill="#c2531a" >[0, 3)</text>
<line x1="211.50" y1="177.00" x2="268.50" y2="177.00" stroke="#c2531a" stroke-width="0.9" stroke-linecap="butt"/>
<line x1="211.50" y1="177.00" x2="211.50" y2="174.60" stroke="#c2531a" stroke-width="0.9" stroke-linecap="butt"/>
<line x1="268.50" y1="177.00" x2="268.50" y2="174.60" stroke="#c2531a" stroke-width="0.9" stroke-linecap="butt"/>
<text x="240.00" y="184.80" font-size="6.4px" text-anchor="middle" fill="#c2531a" >[8, 15)</text>
<line x1="271.50" y1="177.00" x2="298.50" y2="177.00" stroke="#000" stroke-width="0.6" stroke-linecap="butt"/>
<line x1="271.50" y1="177.00" x2="271.50" y2="174.60" stroke="#000" stroke-width="0.6" stroke-linecap="butt"/>
<line x1="298.50" y1="177.00" x2="298.50" y2="174.60" stroke="#000" stroke-width="0.6" stroke-linecap="butt"/>
<text x="285.00" y="184.80" font-size="6.4px" text-anchor="middle" fill="#000" >[3, 8)</text>
<text x="330.00" y="169.10" font-size="7.0px" text-anchor="end" fill="#000" >s = 4</text>
<rect x="334.00" y="160.50" width="30.00" height="12.00" rx="0" fill="#d0ddee" stroke="#000" stroke-width="0.5"/>
<text x="349.00" y="169.30" font-size="7.0px" text-anchor="middle" fill="#000" >0</text>
<rect x="364.00" y="160.50" width="30.00" height="12.00" rx="0" fill="#b7a9cf" stroke="#000" stroke-width="0.5"/>
<text x="379.00" y="169.30" font-size="7.0px" text-anchor="middle" fill="#000" >3</text>
<rect x="394.00" y="160.50" width="30.00" height="12.00" rx="0" fill="#f7f0e1" stroke="#000" stroke-width="0.5"/>
<text x="409.00" y="169.30" font-size="7.0px" text-anchor="middle" fill="#000" >1</text>
<rect x="334.90" y="148.40" width="58.20" height="10.50" rx="1.5" fill="#fff" stroke="#000" stroke-width="0.55"/>
<text x="364.00" y="156.00" font-size="6.6px" text-anchor="middle" fill="#000" >B, top 1</text>
<rect x="394.90" y="148.40" width="28.20" height="10.50" rx="1.5" fill="#fff" stroke="#000" stroke-width="0.55"/>
<text x="409.00" y="156.00" font-size="6.6px" text-anchor="middle" fill="#000" >A, top 4</text>
<line x1="335.50" y1="177.00" x2="362.50" y2="177.00" stroke="#000" stroke-width="0.6" stroke-linecap="butt"/>
<line x1="335.50" y1="177.00" x2="335.50" y2="174.60" stroke="#000" stroke-width="0.6" stroke-linecap="butt"/>
<line x1="362.50" y1="177.00" x2="362.50" y2="174.60" stroke="#000" stroke-width="0.6" stroke-linecap="butt"/>
<text x="349.00" y="184.80" font-size="6.4px" text-anchor="middle" fill="#000" >[0, 3)</text>
<line x1="365.50" y1="177.00" x2="392.50" y2="177.00" stroke="#000" stroke-width="0.6" stroke-linecap="butt"/>
<line x1="365.50" y1="177.00" x2="365.50" y2="174.60" stroke="#000" stroke-width="0.6" stroke-linecap="butt"/>
<line x1="392.50" y1="177.00" x2="392.50" y2="174.60" stroke="#000" stroke-width="0.6" stroke-linecap="butt"/>
<text x="379.00" y="184.80" font-size="6.4px" text-anchor="middle" fill="#000" >[14, 15)</text>
<line x1="395.50" y1="177.00" x2="422.50" y2="177.00" stroke="#000" stroke-width="0.6" stroke-linecap="butt"/>
<line x1="395.50" y1="177.00" x2="395.50" y2="174.60" stroke="#000" stroke-width="0.6" stroke-linecap="butt"/>
<line x1="422.50" y1="177.00" x2="422.50" y2="174.60" stroke="#000" stroke-width="0.6" stroke-linecap="butt"/>
<text x="409.00" y="184.80" font-size="6.4px" text-anchor="middle" fill="#000" >[3, 8)</text>
<text x="454.00" y="169.10" font-size="7.0px" text-anchor="end" fill="#000" >s = 5</text>
<rect x="458.00" y="160.50" width="30.00" height="12.00" rx="0" fill="#f7f0e1" stroke="#000" stroke-width="0.5"/>
<text x="473.00" y="169.30" font-size="7.0px" text-anchor="middle" fill="#000" >1</text>
<rect x="458.90" y="148.40" width="28.20" height="10.50" rx="1.5" fill="#fff" stroke="#000" stroke-width="0.55"/>
<text x="473.00" y="156.00" font-size="6.6px" text-anchor="middle" fill="#000" >A, top 1</text>
<line x1="459.50" y1="177.00" x2="486.50" y2="177.00" stroke="#000" stroke-width="0.6" stroke-linecap="butt"/>
<line x1="459.50" y1="177.00" x2="459.50" y2="174.60" stroke="#000" stroke-width="0.6" stroke-linecap="butt"/>
<line x1="486.50" y1="177.00" x2="486.50" y2="174.60" stroke="#000" stroke-width="0.6" stroke-linecap="butt"/>
<text x="473.00" y="184.80" font-size="6.4px" text-anchor="middle" fill="#000" >[3, 8)</text></svg>